<svg xmlns="http://www.w3.org/2000/svg"
shape-rendering="geometricPrecision"
width="4000" height="4000" viewBox="0 0 542 542">
  <metadata>null</metadata>

<path d="
M 24.809 380.361
C 28.389 380.63 32.198 380.594 35.789 380.444
C 35.682 393.479 36.027 406.512 36.111 419.547
C 36.144 424.714 36.534 430.008 36.224 435.16
C 48.164 434.307 60.331 435.116 72.286 435.117
C 71.982 438.484 72.295 441.99 72.327 445.369
C 65.893 444.623 58.983 445.305 52.503 445.309
C 43.377 445.313 34.085 444.8 24.979 445.371
C 24.355 444.742 24.833 441.943 24.829 441.003
C 24.815 437.003 24.837 433.002 24.833 429.002
C 24.817 412.825 24.289 396.525 24.809 380.361 Z"
opacity="1" fill="rgb(17,17,102)" fill-rule="evenodd" />
<path d="
M 78.922 416.09
C 80.287 409.607 83.553 403.895 89 399.947
C 96.841 394.262 108.728 394.076 116.852 399.185
C 123.494 403.361 127.232 410.643 127.821 418.39
C 127.938 419.925 127.943 421.467 127.947 423.005
C 127.948 423.479 128.122 424.309 127.89 424.696
C 121.631 425.044 115.272 424.702 109.004 424.67
C 102.607 424.637 96.193 424.899 89.803 424.809
C 89.768 426.773 90.889 428.591 91.955 430.172
C 96.171 436.427 104.408 438.016 111.306 435.882
C 112.999 435.358 114.709 434.606 116.157 433.572
C 117.029 432.949 117.767 431.899 118.792 431.57
C 120.608 433.738 123.024 435.349 124.89 437.443
C 115.879 448.801 96.173 448.608 85.987 439.092
C 79.796 433.308 77.455 424.326 78.922 416.09 Z
M 89.363 417.29
C 91.259 417.797 94.022 417.278 96.005 417.285
C 100.84 417.3 105.674 417.285 110.508 417.279
C 112.246 417.277 115.654 416.651 117.204 417.336
C 116.615 414.294 115.781 411.389 113.658 409.035
C 108.705 403.544 100.003 403.435 94.457 408.079
C 91.522 410.537 90.576 413.852 89.363 417.29 Z"
opacity="1" fill="rgb(13,13,102)" fill-rule="evenodd" />
<path d="
M 156.276 161.131
C 163.01 160.965 169.947 159.276 176.565 158.055
C 188.937 155.772 201.506 153.458 213.991 151.971
C 213.944 152.104 213.897 152.237 213.849 152.371
C 212.258 155.959 210.437 159.493 208.67 163.005
C 207.622 165.087 206.795 167.439 205.531 169.393
C 202.969 169.687 200.418 171.272 198.134 172.441
C 194.241 174.434 190.25 176.284 186.31 178.185
C 173.024 184.592 159.544 190.82 145.997 196.66
C 137.723 200.226 129.557 204.046 121.337 207.74
C 119.319 208.647 117.398 209.789 115.327 210.577
C 114.721 210.808 113.55 210.933 113.254 211.609
C 112.543 213.233 114.666 213.249 115.448 214.12
C 114.769 214.2 114.16 214.545 113.504 214.742
C 111.695 214.739 108.369 215.359 106.754 214.629
C 119.22 202.311 130.547 188.796 142.453 175.937
C 145.756 172.37 148.958 168.71 152.263 165.146
C 153.363 163.959 154.746 161.674 156.276 161.131 Z"
opacity="1" fill="rgb(16,73,175)" fill-rule="evenodd" />
<path d="
M 205.531 169.393
C 199.127 183.311 192.163 196.952 185.672 210.824
C 184.867 212.033 184.573 213.694 183.677 214.804
C 180.244 214.238 176.452 214.252 172.988 214.546
C 171.663 214.087 169.876 214.43 168.485 214.427
C 165.481 214.421 162.475 214.426 159.47 214.433
C 149.171 214.458 138.873 214.504 128.575 214.54
C 124.561 214.554 119.225 215.623 115.448 214.12
C 114.666 213.249 112.543 213.233 113.254 211.609
C 113.55 210.933 114.721 210.808 115.327 210.577
C 117.398 209.789 119.319 208.647 121.337 207.74
C 129.557 204.046 137.723 200.226 145.997 196.66
C 159.544 190.82 173.024 184.592 186.31 178.185
C 190.25 176.284 194.241 174.434 198.134 172.441
C 200.418 171.272 202.969 169.687 205.531 169.393 Z"
opacity="1" fill="rgb(17,83,183)" fill-rule="evenodd" />
<path d="
M 115.448 214.12
C 119.225 215.623 124.561 214.554 128.575 214.54
C 138.873 214.504 149.171 214.458 159.47 214.433
C 162.475 214.426 165.481 214.421 168.485 214.427
C 169.876 214.43 171.663 214.087 172.988 214.546
C 153.166 214.815 133.328 214.694 113.504 214.742
C 114.16 214.545 114.769 214.2 115.448 214.12 Z"
opacity="1" fill="rgb(94,134,184)" fill-rule="evenodd" />
<path d="
M 114.288 499.991
C 114.517 499.561 114.793 499.195 115.086 498.805
C 115.79 498.397 117.757 500.303 118.541 500.697
C 121.428 502.145 126.752 502.85 128.874 499.658
C 130.442 497.299 128.24 495.117 126.199 494.244
C 122.22 492.543 114.866 492.184 114.818 486.411
C 114.764 479.904 122.83 478.692 127.627 480.469
C 128.806 480.906 130.357 481.5 131.134 482.519
C 131.073 483.47 130.745 484.624 129.52 484.52
C 128.474 484.432 127.211 483.194 126.249 482.757
C 123.732 481.617 118.19 481.925 117.787 485.466
C 117.427 488.641 119.807 489.43 122.339 490.192
C 126.814 491.538 133.778 493.396 131.848 499.62
C 129.446 506.684 118.673 504.85 114.21 501.135
C 114.024 500.391 114.015 500.773 114.288 499.991 Z"
opacity="1" fill="rgb(11,7,64)" fill-rule="evenodd" />
<path d="
M 134.468 503.062
C 136.61 498.1 138.99 493.255 141.281 488.361
C 142.536 485.681 143.562 482.67 145.158 480.184
C 145.855 479.784 147.095 479.705 147.836 480.022
C 149.91 486.117 153.324 492.029 155.911 497.943
C 156.534 499.369 157.25 500.838 158.081 502.154
C 158.439 502.722 159.265 503.46 159.23 504.161
C 158.183 504.248 157.169 504.374 156.118 504.355
C 154.75 503.198 153.602 499.726 152.9 498.048
C 152.03 497.541 150.25 497.901 149.258 497.917
C 146.196 497.967 142.798 497.479 139.805 498.135
C 139.395 498.639 139.119 499.121 138.844 499.707
C 138.342 501.015 137.83 503.282 136.817 504.259
C 135.962 504.478 135.018 504.268 134.153 504.168
C 134.333 503.376 134.223 503.743 134.468 503.062 Z
M 140.85 495.197
C 140.818 495.338 140.786 495.478 140.754 495.618
C 144.423 495.616 148.177 495.138 151.859 495.343
C 151.839 494.457 150.708 492.703 150.338 491.816
C 149.13 488.915 147.834 486.046 146.606 483.158
C 145.878 483.924 145.373 485.899 144.921 486.985
C 143.784 489.724 142.461 492.708 140.85 495.197 Z"
opacity="1" fill="rgb(10,8,66)" fill-rule="evenodd" />
<path d="
M 136.948 427.08
C 140.483 415.089 154.156 415.759 164.259 416.15
C 166.389 416.233 168.54 416.121 170.663 416.244
C 171.564 411.552 167.87 407.239 163.668 405.953
C 157.214 403.978 149.837 405.994 144.102 409.071
C 142.897 406.305 141.882 403.365 140.919 400.506
C 144.598 398.005 149.314 396.788 153.69 396.166
C 157.172 395.672 160.621 395.667 164.113 396.051
C 166.373 396.299 168.602 396.847 170.704 397.717
C 172.345 398.396 173.974 399.219 175.4 400.291
C 181.195 404.65 181.805 411.463 181.847 418.147
C 181.885 424.097 181.791 430.048 181.794 435.998
C 181.795 438.908 181.481 442.076 181.899 444.95
C 178.253 445.513 174.42 444.679 170.728 445.231
C 170.7 444.248 171.429 440.373 170.462 440.02
C 168.631 441.648 166.879 443.185 164.597 444.157
C 154.671 448.387 138.066 445.503 136.68 432.657
C 136.481 430.812 136.513 428.889 136.948 427.08 Z
M 147.867 428.544
C 146.392 435.09 152.982 438.208 158.494 438.025
C 162.791 437.883 167.762 436.09 170.011 432.156
C 171.169 430.133 171.098 425.934 170.71 423.689
C 166.803 423.52 162.917 423.262 159 423.249
C 154.185 423.233 149.96 423.59 147.867 428.544 Z"
opacity="1" fill="rgb(13,13,104)" fill-rule="evenodd" />
<path d="
M 270.296 38.146
C 269.934 39.4 269.934 40.698 269.941 41.998
C 269.208 41.378 268.359 41.019 268.247 42.287
C 268.213 44.565 265.533 46.855 264.446 48.867
C 261.454 54.408 258.886 60.229 256.054 65.858
C 245.896 86.044 236.085 106.424 226.301 126.795
C 223.422 132.79 220.446 138.739 217.571 144.736
C 216.707 146.538 214.094 149.864 214.364 151.878
C 214.24 151.909 214.115 151.94 213.991 151.971
C 201.506 153.458 188.937 155.772 176.565 158.055
C 169.947 159.276 163.01 160.965 156.276 161.131
C 156.264 160.585 156.987 159.951 157.311 159.54
C 158.287 158.301 159.499 157.253 160.538 156.063
C 164.677 151.326 169.042 146.767 173.308 142.143
C 190.272 123.756 206.875 105.005 224.051 86.828
C 235.815 74.379 247.438 61.7 258.899 48.972
C 261.593 45.979 264.358 43.065 266.969 39.994
C 267.366 39.526 268.964 37.359 269.611 37.443
C 269.93 37.485 270.062 37.987 270.296 38.146 Z"
opacity="1" fill="rgb(25,152,218)" fill-rule="evenodd" />
<path d="
M 162.502 488.623
C 162.871 485.874 162.615 482.891 162.581 480.119
C 166.728 480.028 173.11 478.937 176.871 481.014
C 181.917 483.801 182.467 491.597 177.377 494.686
C 173.849 496.827 169.302 496.194 165.355 496.279
C 165.202 498.945 165.285 501.597 165.302 504.262
C 164.49 504.268 163.095 504.467 162.471 503.936
C 162.041 498.99 162.206 493.58 162.502 488.623 Z
M 165.343 482.858
C 164.847 486.4 165.311 490.109 165.228 493.678
C 166.061 493.977 167.235 493.718 168.115 493.702
C 170.761 493.656 173.993 493.948 176.19 492.167
C 178.633 490.186 178.485 485.498 175.986 483.62
C 173.611 481.836 168.127 482.609 165.343 482.858 Z"
opacity="1" fill="rgb(11,7,64)" fill-rule="evenodd" />
<path d="
M 185.672 210.824
C 185.281 211.87 186.775 213.961 187.797 213.344
C 189.381 212.39 189.841 210.264 191.042 208.85
C 197.054 201.284 205.002 195.444 212.149 188.984
C 223.215 178.983 233.868 167.748 246.35 159.479
C 249.613 157.317 253.247 154.895 256.759 153.187
C 257.61 152.773 258.539 152.846 259.377 152.38
C 255.331 156.64 250.907 160.554 246.807 164.767
C 234.359 177.557 221.993 190.428 209.528 203.201
C 203.342 209.539 196.494 215.499 190.68 222.168
C 189.013 223.62 187.255 225.131 185.683 226.675
C 185.065 227.281 184.737 228.492 183.794 228.547
C 184.064 225.412 183.824 222.157 183.843 219.005
C 183.85 217.792 184.234 215.875 183.677 214.804
C 184.573 213.694 184.867 212.033 185.672 210.824 Z"
opacity="1" fill="rgb(17,60,168)" fill-rule="evenodd" />
<path d="
M 183.794 228.547
C 184.737 228.492 185.065 227.281 185.683 226.675
C 187.255 225.131 189.013 223.62 190.68 222.168
C 191.222 221.912 191.489 222.763 191.609 223.191
C 191.825 223.962 190.836 226.496 192.451 226.452
C 193.252 226.429 194.217 225.687 194.885 225.308
C 196.842 224.199 198.788 223.071 200.752 221.973
C 207.429 218.239 214.326 214.938 221.062 211.318
C 227.02 208.116 232.837 204.638 238.795 201.448
C 240.159 200.717 241.538 199.953 242.962 199.344
C 243.508 199.111 244.122 198.753 244.588 199.221
C 244.859 199.364 245.007 198.565 245.196 198.34
C 244.962 199.335 244.362 200.128 243.953 201.049
C 242.625 204.046 241.365 207.084 240 210.07
C 236.807 217.055 233.845 224.185 230.917 231.283
C 229.816 233.953 228.655 236.567 227.456 239.195
C 226.913 240.386 225.948 241.711 226.244 243.048
C 225.829 243.257 225.636 243.536 225.38 243.92
C 225.686 242.796 224.029 242.524 223.18 242.219
C 220.834 241.376 218.386 240.709 215.995 239.995
C 209.074 237.927 202.12 235.804 195.261 233.537
C 191.596 232.326 187.62 230.581 183.811 230
C 183.8 229.512 183.775 229.035 183.794 228.547 Z"
opacity="1" fill="rgb(13,35,145)" fill-rule="evenodd" />
<path d="
M 183.811 230
C 187.62 230.581 191.596 232.326 195.261 233.537
C 202.12 235.804 209.074 237.927 215.995 239.995
C 218.386 240.709 220.834 241.376 223.18 242.219
C 224.029 242.524 225.686 242.796 225.38 243.92
C 222.791 250.871 219.431 257.586 216.571 264.433
C 211.158 277.391 205.704 290.419 199.846 303.177
C 196.365 310.757 192.975 318.448 189.806 326.161
C 189.091 327.902 188.329 329.758 188.116 331.641
C 188.08 331.96 187.875 333.02 188.268 333.23
C 188.556 333.385 190.101 333.056 190.445 332.941
C 189.165 334.417 187.629 335.651 186.158 336.929
C 185.39 337.596 184.847 338.569 183.891 338.959
C 183.583 338.121 183.821 336.922 183.816 336.012
C 183.803 333.675 183.769 331.342 183.791 329.004
C 183.862 321.505 183.827 314.004 183.804 306.504
C 183.727 281.037 183.136 255.454 183.811 230 Z"
opacity="1" fill="rgb(16,51,162)" fill-rule="evenodd" />
<path d="
M 205.531 169.393
C 206.795 167.439 207.622 165.087 208.67 163.005
C 210.437 159.493 212.258 155.959 213.849 152.371
C 214.276 152.058 214.116 152.233 214.364 151.878
C 218.779 151.433 223.158 150.341 227.518 149.532
C 236.371 147.891 245.25 146.339 254.136 144.893
C 257.487 144.347 260.84 143.868 264.171 143.208
C 265.919 142.862 268.19 142.071 269.947 142.357
C 269.956 142.562 269.964 142.768 269.973 142.974
C 268.078 143.77 267.228 145.219 265.738 146.716
C 263.434 148.375 261.549 150.558 259.377 152.38
C 258.539 152.846 257.61 152.773 256.759 153.187
C 253.247 154.895 249.613 157.317 246.35 159.479
C 233.868 167.748 223.215 178.983 212.149 188.984
C 205.002 195.444 197.054 201.284 191.042 208.85
C 189.841 210.264 189.381 212.39 187.797 213.344
C 186.775 213.961 185.281 211.87 185.672 210.824
C 192.163 196.952 199.127 183.311 205.531 169.393 Z"
opacity="1" fill="rgb(15,63,167)" fill-rule="evenodd" />
<path d="
M 225.38 243.92
C 225.636 243.536 225.829 243.257 226.244 243.048
C 229.54 244.728 233.416 245.331 236.878 246.574
C 244.025 249.142 251.38 251.627 258.668 253.76
C 261.144 254.484 263.731 255.202 266.118 256.184
C 266.961 256.53 268.117 257.985 268.937 257.909
C 262.142 265.216 254.459 272.031 247.072 278.735
C 237.37 287.54 228.088 296.907 218.611 305.967
C 213.834 310.534 208.861 314.986 204.222 319.685
C 199.861 324.103 195.482 329.295 190.445 332.941
C 190.101 333.056 188.556 333.385 188.268 333.23
C 187.875 333.02 188.08 331.96 188.116 331.641
C 188.329 329.758 189.091 327.902 189.806 326.161
C 192.975 318.448 196.365 310.757 199.846 303.177
C 205.704 290.419 211.158 277.391 216.571 264.433
C 219.431 257.586 222.791 250.871 225.38 243.92 Z"
opacity="1" fill="rgb(14,28,136)" fill-rule="evenodd" />
<path d="
M 259.377 152.38
C 261.549 150.558 263.434 148.375 265.738 146.716
C 264.528 148.27 267.294 148.326 267.197 148.804
C 266.564 151.903 263.867 155.408 262.438 158.244
C 257.959 167.126 254.341 176.546 250.475 185.708
C 248.787 189.707 246.041 194.079 245.196 198.34
C 245.007 198.565 244.859 199.364 244.588 199.221
C 244.122 198.753 243.508 199.111 242.962 199.344
C 241.538 199.953 240.159 200.717 238.795 201.448
C 232.837 204.638 227.02 208.116 221.062 211.318
C 214.326 214.938 207.429 218.239 200.752 221.973
C 198.788 223.071 196.842 224.199 194.885 225.308
C 194.217 225.687 193.252 226.429 192.451 226.452
C 190.836 226.496 191.825 223.962 191.609 223.191
C 191.489 222.763 191.222 221.912 190.68 222.168
C 196.494 215.499 203.342 209.539 209.528 203.201
C 221.993 190.428 234.359 177.557 246.807 164.767
C 250.907 160.554 255.331 156.64 259.377 152.38 Z"
opacity="1" fill="rgb(12,31,139)" fill-rule="evenodd" />
<path d="
M 192.937 492.579
C 195.659 482.917 210.366 483.801 211.453 493.921
C 211.587 495.17 211.529 496.479 211.181 497.689
C 208.484 507.085 194.516 505.921 192.778 496.491
C 192.539 495.195 192.58 493.847 192.937 492.579 Z
M 195.489 494.109
C 195.22 496.638 196.3 499.682 198.559 501.03
C 202.815 503.569 208.445 500.67 208.898 495.769
C 209.707 487.011 196.451 485.058 195.489 494.109 Z"
opacity="1" fill="rgb(10,7,64)" fill-rule="evenodd" />
<path d="
M 196.494 420.122
C 196.85 417.322 196.568 414.326 196.583 411.501
C 196.61 406.523 196.737 401.515 196.53 396.542
C 200.231 396.436 203.963 396.548 207.665 396.666
C 207.733 399.59 207.586 402.532 207.489 405.456
C 208.258 405.132 208.551 404.097 208.941 403.418
C 209.608 402.26 210.48 401.194 211.436 400.26
C 214.946 396.829 219.848 395.413 224.688 395.686
C 224.716 399.149 224.807 402.68 224.784 406.137
C 222.694 406.125 220.475 406.106 218.478 406.801
C 213.319 408.594 209.179 413.305 208.099 418.686
C 207.218 423.076 207.797 428.039 207.802 432.499
C 207.806 436.61 207.517 440.857 207.867 444.952
C 204.13 445.092 200.387 444.945 196.649 445.119
C 196.189 436.905 196.238 428.349 196.494 420.122 Z"
opacity="1" fill="rgb(15,14,106)" fill-rule="evenodd" />
<path d="
M 269.941 41.998
C 270.121 44.471 269.869 46.864 269.932 49.352
C 270.185 59.231 270.134 69.118 270.141 79.006
C 270.157 100.033 270.336 121.047 269.957 142.019
C 269.953 142.132 269.95 142.244 269.947 142.357
C 268.19 142.071 265.919 142.862 264.171 143.208
C 260.84 143.868 257.487 144.347 254.136 144.893
C 245.25 146.339 236.371 147.891 227.518 149.532
C 223.158 150.341 218.779 151.433 214.364 151.878
C 214.094 149.864 216.707 146.538 217.571 144.736
C 220.446 138.739 223.422 132.79 226.301 126.795
C 236.085 106.424 245.896 86.044 256.054 65.858
C 258.886 60.229 261.454 54.408 264.446 48.867
C 265.533 46.855 268.213 44.565 268.247 42.287
C 268.359 41.019 269.208 41.378 269.941 41.998 Z"
opacity="1" fill="rgb(24,137,209)" fill-rule="evenodd" />
<path d="
M 216.366 485.851
C 217.085 485.359 218.173 485.542 219.002 485.681
C 219.066 486.655 219.05 487.559 218.957 488.541
C 219.826 488.333 220.685 487.07 221.392 486.517
C 222.543 485.616 224.079 485.412 225.507 485.479
C 226.35 485.518 227.194 485.726 227.992 485.987
C 233.512 487.79 232.869 493.965 232.816 498.617
C 232.796 500.379 233.146 502.393 232.679 504.1
C 231.929 504.343 231.085 504.297 230.303 504.332
C 229.616 503.432 229.936 501.765 229.956 500.681
C 230.009 497.727 230.786 493.871 229.656 491.066
C 227.949 486.829 221.67 486.805 219.694 490.839
C 219.002 492.251 219.192 494.068 219.175 495.595
C 219.143 498.452 219.321 501.455 219.024 504.287
C 218.306 504.475 217.065 504.405 216.457 503.988
C 216.042 498.101 216.094 491.748 216.366 485.851 Z"
opacity="1" fill="rgb(10,8,64)" fill-rule="evenodd" />
<path d="
M 245.196 198.34
C 246.041 194.079 248.787 189.707 250.475 185.708
C 254.341 176.546 257.959 167.126 262.438 158.244
C 263.867 155.408 266.564 151.903 267.197 148.804
C 267.294 148.326 264.528 148.27 265.738 146.716
C 267.228 145.219 268.078 143.77 269.973 142.974
C 270.233 145.032 269.773 147.098 269.807 149.226
C 269.906 155.477 269.92 161.738 269.88 167.991
C 269.849 169.514 269.887 171.034 269.882 172.556
C 269.914 176.016 269.842 179.488 269.944 182.945
C 269.887 183.762 269.765 184.702 270.125 185.465
C 269.277 191.154 269.95 197.251 269.888 202.993
C 269.867 215.495 269.879 227.999 269.928 240.502
C 269.942 244.002 269.911 247.503 269.9 251.003
C 269.895 252.546 269.558 254.604 270.121 256.056
C 270.356 256.688 270.29 256.389 270.359 256.942
C 269.928 257.14 270.099 256.996 269.833 257.361
C 269.494 257.509 269.257 257.727 268.937 257.909
C 268.117 257.985 266.961 256.53 266.118 256.184
C 263.731 255.202 261.144 254.484 258.668 253.76
C 251.38 251.627 244.025 249.142 236.878 246.574
C 233.416 245.331 229.54 244.728 226.244 243.048
C 225.948 241.711 226.913 240.386 227.456 239.195
C 228.655 236.567 229.816 233.953 230.917 231.283
C 233.845 224.185 236.807 217.055 240 210.07
C 241.365 207.084 242.625 204.046 243.953 201.049
C 244.362 200.128 244.962 199.335 245.196 198.34 Z"
opacity="1" fill="rgb(12,20,125)" fill-rule="evenodd" />
<path d="
M 235.33 396.402
C 238.957 396.629 242.594 396.283 246.218 396.468
C 247.114 398.476 246.326 401.924 246.263 404.118
C 246.28 404.198 248.003 401.841 248.322 401.449
C 249.894 399.517 251.93 398.005 254.229 397.051
C 260.67 394.379 268.381 395.161 274.1 399.13
C 279.541 402.905 280.981 410.102 280.983 416.264
C 280.986 425.708 280.022 435.541 280.862 444.941
C 277.074 444.579 273.17 444.922 269.383 445.071
C 270.05 437.045 269.325 428.755 269.376 420.699
C 269.402 416.572 269.554 411.782 266.509 408.54
C 261.218 402.908 251.568 405.145 248.253 411.548
C 246.547 414.844 246.642 418.386 246.635 422.001
C 246.626 426.669 246.634 431.336 246.654 436.004
C 246.664 438.297 246.628 440.6 246.731 442.891
C 246.76 443.536 246.587 444.487 246.814 445.088
C 243.362 444.441 238.961 444.659 235.467 444.981
C 234.949 443.412 235.258 441.393 235.25 439.751
C 235.233 436.335 235.258 432.919 235.253 429.504
C 235.243 422.171 235.283 414.839 235.285 407.506
C 235.285 403.884 234.869 399.989 235.33 396.402 Z"
opacity="1" fill="rgb(16,14,107)" fill-rule="evenodd" />
<path d="
M 238.956 479.605
C 239.079 479.132 239.026 479.427 239.033 478.708
C 239.835 478.247 240.614 478.12 241.537 478.242
C 242.065 480.642 241.606 483.539 241.596 486
C 241.573 491.997 241.22 498.23 241.745 504.201
C 240.874 504.203 240.051 504.272 239.186 504.145
C 238.687 499.646 239.039 495.046 239.083 490.531
C 239.118 486.9 238.786 483.225 238.956 479.605 Z"
opacity="1" fill="rgb(19,15,78)" fill-rule="evenodd" />
<path d="
M 248.241 478.839
C 249.136 478.122 250.298 477.856 251.266 478.617
C 251.644 479.129 251.8 479.494 251.82 480.132
C 251.676 481.01 251.249 481.682 250.439 482.091
C 248.504 482.546 248.096 480.228 248.241 478.839 Z"
opacity="1" fill="rgb(15,13,63)" fill-rule="evenodd" />
<path d="
M 248.45 486.61
C 248.58 485.989 248.486 486.367 248.782 485.492
C 249.555 485.387 250.33 485.287 251.107 485.225
C 251.587 486.788 251.196 488.849 251.2 490.489
C 251.21 494.983 250.726 499.797 251.225 504.255
C 250.397 504.31 249.612 504.163 248.792 504.131
C 248.205 501.852 248.587 499.127 248.594 496.783
C 248.604 493.418 248.265 489.959 248.45 486.61 Z"
opacity="1" fill="rgb(13,11,67)" fill-rule="evenodd" />
<path d="
M 258.021 490.122
C 258.22 488.64 257.616 486.744 258.517 485.49
C 259.3 485.489 259.969 485.514 260.731 485.665
C 260.685 486.424 260.748 487.139 260.844 487.892
C 261.206 488.691 263.276 486.243 264.04 485.922
C 266.117 485.051 268.717 485.405 270.681 486.405
C 275.286 488.752 274.29 494.812 274.231 499.079
C 274.208 500.739 274.387 502.446 274.138 504.092
C 273.24 504.291 272.427 504.18 271.536 504.005
C 271.222 499.761 273.113 493.718 270.682 489.904
C 268.458 486.414 262.828 487.628 261.085 491.008
C 260.45 492.24 260.635 493.913 260.626 495.259
C 260.605 498.209 260.425 501.286 260.774 504.218
C 259.997 504.377 259.226 504.219 258.44 504.199
C 257.691 502.91 257.885 501.155 257.891 499.706
C 257.905 496.53 257.775 493.288 258.021 490.122 Z"
opacity="1" fill="rgb(13,11,74)" fill-rule="evenodd" />
<path d="
M 270.296 38.146
C 272.451 39.664 274.353 41.916 276.015 43.976
C 276.44 44.855 275.223 43.967 274.796 44.687
C 274.354 45.432 274.498 46.469 274.803 47.242
C 275.72 49.566 277.308 51.817 278.386 54.106
C 281.545 60.814 284.762 67.49 287.995 74.162
C 295.961 90.602 304.059 106.987 312.094 123.391
C 316.744 132.886 321.675 142.319 325.938 151.993
C 324.606 151.159 322.691 151.236 321.173 151.004
C 317.94 150.51 314.733 149.946 311.524 149.317
C 302.733 147.596 293.914 145.993 285.075 144.544
C 281.234 143.915 277.42 142.99 273.533 142.678
C 272.375 142.433 271.065 142.407 269.957 142.019
C 270.336 121.047 270.157 100.033 270.141 79.006
C 270.134 69.118 270.185 59.231 269.932 49.352
C 269.869 46.864 270.121 44.471 269.941 41.998
C 269.934 40.698 269.934 39.4 270.296 38.146 Z"
opacity="1" fill="rgb(254,172,66)" fill-rule="evenodd" />
<path d="
M 269.957 142.019
C 271.065 142.407 272.375 142.433 273.533 142.678
C 273.335 143.278 272.931 143.686 272.811 144.327
C 272.573 145.598 273.93 146.471 274.625 147.297
C 273.281 147.601 273.127 148.794 273.61 149.883
C 275.027 153.078 276.36 156.311 277.792 159.5
C 281.832 168.493 285.999 177.424 289.923 186.471
C 291.441 189.97 293.638 193.79 294.582 197.471
C 288.21 194.705 282.217 190.71 276.218 187.224
C 274.441 186.192 272.822 184.808 270.977 183.911
C 270.625 183.592 270.268 183.294 269.944 182.945
C 269.842 179.488 269.914 176.016 269.882 172.556
C 270.321 171.358 270.335 169.185 269.88 167.991
C 269.92 161.738 269.906 155.477 269.807 149.226
C 269.773 147.098 270.233 145.032 269.973 142.974
C 269.964 142.768 269.956 142.562 269.947 142.357
C 269.95 142.244 269.953 142.132 269.957 142.019 Z"
opacity="1" fill="rgb(249,43,24)" fill-rule="evenodd" />
<path d="
M 269.88 167.991
C 270.335 169.185 270.321 171.358 269.882 172.556
C 269.887 171.034 269.849 169.514 269.88 167.991 Z"
opacity="1" fill="rgb(163,49,76)" fill-rule="evenodd" />
<path d="
M 269.944 182.945
C 270.268 183.294 270.625 183.592 270.977 183.911
C 270.307 184.138 270.21 184.843 270.125 185.465
C 269.765 184.702 269.887 183.762 269.944 182.945 Z"
opacity="1" fill="rgb(135,55,73)" fill-rule="evenodd" />
<path d="
M 270.125 185.465
C 270.21 184.843 270.307 184.138 270.977 183.911
C 272.822 184.808 274.441 186.192 276.218 187.224
C 282.217 190.71 288.21 194.705 294.582 197.471
C 295.044 198.114 295.325 198.733 295.521 199.503
C 296.916 203.831 299.118 208.042 300.934 212.211
C 303.901 219.02 306.642 225.927 309.698 232.699
C 310.849 235.25 311.819 237.877 312.91 240.453
C 313.181 241.09 313.631 242.861 314.398 242.869
C 314.341 243.654 314.309 243.282 314.466 243.986
C 313.56 242.649 312.441 243.553 311.259 243.969
C 308.812 244.833 306.282 245.598 303.795 246.34
C 292.641 249.671 281.282 252.954 270.359 256.942
C 270.29 256.389 270.356 256.688 270.121 256.056
C 269.512 243.261 269.98 230.31 270.033 217.5
C 270.047 214 270.081 210.5 270.102 207
C 270.109 205.856 270.497 203.994 269.888 202.993
C 269.95 197.251 269.277 191.154 270.125 185.465 Z"
opacity="1" fill="rgb(249,50,26)" fill-rule="evenodd" />
<path d="
M 269.888 202.993
C 270.497 203.994 270.109 205.856 270.102 207
C 270.081 210.5 270.047 214 270.033 217.5
C 269.98 230.31 269.512 243.261 270.121 256.056
C 269.558 254.604 269.895 252.546 269.9 251.003
C 269.911 247.503 269.942 244.002 269.928 240.502
C 269.879 227.999 269.867 215.495 269.888 202.993 Z"
opacity="1" fill="rgb(150,56,79)" fill-rule="evenodd" />
<path d="
M 270.359 256.942
C 281.282 252.954 292.641 249.671 303.795 246.34
C 306.282 245.598 308.812 244.833 311.259 243.969
C 312.441 243.553 313.56 242.649 314.466 243.986
C 316.496 250.194 319.779 256.096 322.331 262.105
C 326.892 272.843 331.579 283.526 336.247 294.218
C 340.167 303.194 344.026 312.196 347.951 321.167
C 349.953 325.743 351.553 330.691 354.029 335.034
C 354.547 335.939 354.904 336.235 355.916 336.496
C 355.985 337.454 356.212 338.414 356.161 339.37
C 355.886 339.448 355.111 338.43 354.932 338.237
C 353.782 337.002 352.562 335.826 351.344 334.659
C 346.035 329.572 340.744 324.468 335.449 319.368
C 320.127 304.609 304.779 289.9 289.301 275.315
C 284.872 271.143 280.429 266.984 276.031 262.779
C 274.286 261.11 272.083 258.222 269.833 257.361
C 270.099 256.996 269.928 257.14 270.359 256.942 Z"
opacity="1" fill="rgb(249,76,27)" fill-rule="evenodd" />
<path d="
M 273.533 142.678
C 277.42 142.99 281.234 143.915 285.075 144.544
C 293.914 145.993 302.733 147.596 311.524 149.317
C 314.733 149.946 317.94 150.51 321.173 151.004
C 322.691 151.236 324.606 151.159 325.938 151.993
C 326.093 152.406 325.947 152.347 326.191 152.39
C 328.23 158.777 332.595 164.304 334.918 170.543
C 338.807 180.226 343.973 189.527 348.395 198.981
C 350.245 202.936 352.552 206.89 354.001 211.006
C 353.855 211.619 352.403 210.592 352.138 210.37
C 350.439 208.945 348.769 207.512 347.115 206.035
C 343.127 202.473 339.028 199.038 335.038 195.481
C 326.845 188.178 318.71 180.756 310.266 173.741
C 306.192 170.356 301.877 167.254 297.834 163.836
C 293.952 160.552 289.634 157.042 285.293 154.399
C 284.145 153.699 282.913 152.61 281.631 152.215
C 281.251 152.098 280.425 151.943 280.447 152.548
C 278.481 151.083 277.041 148.01 274.625 147.297
C 273.93 146.471 272.573 145.598 272.811 144.327
C 272.931 143.686 273.335 143.278 273.533 142.678 Z"
opacity="1" fill="rgb(249,113,22)" fill-rule="evenodd" />
<path d="
M 274.625 147.297
C 277.041 148.01 278.481 151.083 280.447 152.548
C 281.915 154.425 283.876 155.968 285.551 157.662
C 288.666 160.812 291.756 163.988 294.849 167.159
C 306.951 179.567 319.032 192.008 331.235 204.317
C 335.67 208.79 340.1 213.266 344.515 217.758
C 346.672 219.954 349.111 222.063 351.016 224.479
C 350.997 224.59 349.476 225.329 349.184 225.667
C 348.84 226.065 348.529 226.836 347.925 226.931
C 347.096 227.063 346.143 225.762 345.464 225.37
C 342.976 223.935 340.529 222.326 337.979 221.011
C 334.712 219.326 331.655 217.174 328.396 215.442
C 321.4 211.724 314.159 208.487 307.302 204.497
C 304.73 203.001 302.079 201.608 299.416 200.28
C 298.068 199.607 296.829 198.934 295.521 199.503
C 295.325 198.733 295.044 198.114 294.582 197.471
C 293.638 193.79 291.441 189.97 289.923 186.471
C 285.999 177.424 281.832 168.493 277.792 159.5
C 276.36 156.311 275.027 153.078 273.61 149.883
C 273.127 148.794 273.281 147.601 274.625 147.297 Z"
opacity="1" fill="rgb(250,76,26)" fill-rule="evenodd" />
<path d="
M 276.015 43.976
C 277.655 45.323 278.933 47.166 280.373 48.721
C 284.2 52.853 287.922 57.106 291.819 61.168
C 302.621 72.43 313.073 84.028 323.689 95.464
C 336.035 108.765 348.525 122.038 360.484 135.683
C 368.12 144.396 376.958 152.3 384.059 161.461
C 382.625 160.604 380.685 160.853 379.066 160.601
C 375.218 160.001 371.383 159.247 367.551 158.545
C 353.923 156.052 340.192 153.835 326.48 151.93
C 326.3 151.951 326.119 151.972 325.938 151.993
C 321.675 142.319 316.744 132.886 312.094 123.391
C 304.059 106.987 295.961 90.602 287.995 74.162
C 284.762 67.49 281.545 60.814 278.386 54.106
C 277.308 51.817 275.72 49.566 274.803 47.242
C 274.498 46.469 274.354 45.432 274.796 44.687
C 275.223 43.967 276.44 44.855 276.015 43.976 Z"
opacity="1" fill="rgb(253,187,74)" fill-rule="evenodd" />
<path d="
M 278.964 494.109
C 279.632 490.197 281.889 486.346 286.117 485.496
C 291.557 484.403 297.455 490.144 296.535 495.67
C 295.029 496.169 293.085 495.858 291.519 495.861
C 288.201 495.867 284.905 495.777 281.616 496.182
C 281.053 497.444 282.899 499.39 283.811 500.103
C 285.651 501.54 288.447 502.438 290.713 501.405
C 291.856 500.883 292.713 499.985 293.862 499.484
C 294.545 499.781 295.628 500.375 295.271 501.265
C 293.174 502.799 291.194 504.105 288.503 504.121
C 283.13 504.155 278.405 499.609 278.964 494.109 Z
M 281.966 492.08
C 281.797 492.598 281.696 493.004 281.72 493.551
C 285.669 494.407 290.232 493.571 294.266 493.77
C 294.29 493.18 293.629 492.562 293.401 492.02
C 291.799 488.203 287.259 485.845 283.823 489.183
C 283.049 490.048 282.467 491.036 281.966 492.08 Z"
opacity="1" fill="rgb(9,9,65)" fill-rule="evenodd" />
<path d="
M 354.001 211.006
C 354.666 211.758 355.201 212.8 355.643 213.699
C 355.771 213.958 355.942 214.738 356.253 214.835
C 355.532 218.822 355.919 223.489 356.107 227.511
C 356.503 235.98 355.974 244.911 355.979 253.502
C 355.996 281.149 356.467 308.863 355.916 336.496
C 354.904 336.235 354.547 335.939 354.029 335.034
C 351.553 330.691 349.953 325.743 347.951 321.167
C 344.026 312.196 340.167 303.194 336.247 294.218
C 331.579 283.526 326.892 272.843 322.331 262.105
C 319.779 256.096 316.496 250.194 314.466 243.986
C 314.309 243.282 314.341 243.654 314.398 242.869
C 324.97 239.684 335.684 236.216 346.049 232.402
C 348.406 231.535 350.85 230.771 353.262 230.075
C 353.84 229.908 355.584 229.814 355.454 229.009
C 354.326 227.412 352.479 225.794 351.016 224.479
C 349.111 222.063 346.672 219.954 344.515 217.758
C 340.1 213.266 335.67 208.79 331.235 204.317
C 319.032 192.008 306.951 179.567 294.849 167.159
C 291.756 163.988 288.666 160.812 285.551 157.662
C 283.876 155.968 281.915 154.425 280.447 152.548
C 280.425 151.943 281.251 152.098 281.631 152.215
C 282.913 152.61 284.145 153.699 285.293 154.399
C 289.634 157.042 293.952 160.552 297.834 163.836
C 301.877 167.254 306.192 170.356 310.266 173.741
C 318.71 180.756 326.845 188.178 335.038 195.481
C 339.028 199.038 343.127 202.473 347.115 206.035
C 348.769 207.512 350.439 208.945 352.138 210.37
C 352.403 210.592 353.855 211.619 354.001 211.006 Z"
opacity="1" fill="rgb(250,118,30)" fill-rule="evenodd" />
<path d="
M 295.521 199.503
C 296.829 198.934 298.068 199.607 299.416 200.28
C 302.079 201.608 304.73 203.001 307.302 204.497
C 314.159 208.487 321.4 211.724 328.396 215.442
C 331.655 217.174 334.712 219.326 337.979 221.011
C 340.529 222.326 342.976 223.935 345.464 225.37
C 346.143 225.762 347.096 227.063 347.925 226.931
C 348.529 226.836 348.84 226.065 349.184 225.667
C 349.476 225.329 350.997 224.59 351.016 224.479
C 352.479 225.794 354.326 227.412 355.454 229.009
C 355.584 229.814 353.84 229.908 353.262 230.075
C 350.85 230.771 348.406 231.535 346.049 232.402
C 335.684 236.216 324.97 239.684 314.398 242.869
C 313.631 242.861 313.181 241.09 312.91 240.453
C 311.819 237.877 310.849 235.25 309.698 232.699
C 306.642 225.927 303.901 219.02 300.934 212.211
C 299.118 208.042 296.916 203.831 295.521 199.503 Z"
opacity="1" fill="rgb(249,76,27)" fill-rule="evenodd" />
<path d="
M 309.485 494.104
C 309.801 491.837 310.581 489.712 312.226 488.07
C 315.557 484.742 322.175 484.164 325.161 488.342
C 325.295 489.373 324.96 490.178 323.913 490.438
C 321.447 489.083 320.643 487.175 317.393 487.957
C 310.545 489.603 310.597 500.451 317.636 501.728
C 320.783 502.299 321.974 500.108 324.66 499.382
C 325.381 499.717 325.931 500.62 325.921 501.418
C 325.099 502.752 322.996 503.528 321.54 503.882
C 315.356 505.387 309.037 500.714 309.485 494.104 Z"
opacity="1" fill="rgb(8,6,62)" fill-rule="evenodd" />
<path d="
M 317.242 377.711
C 320.183 377.693 323.123 377.805 326.065 377.784
C 326.804 377.779 328.909 377.391 329.376 377.884
C 329.34 381.409 329 385.723 329.776 389.164
C 325.648 389.128 321.366 388.689 317.266 389.088
C 317.558 385.413 317.7 381.37 317.242 377.711 Z"
opacity="1" fill="rgb(249,103,23)" fill-rule="evenodd" />
<path d="
M 317.699 396.766
C 321.466 396.336 325.487 396.427 329.275 396.59
C 328.847 407.358 329.236 418.223 329.226 429.001
C 329.222 432.502 329.227 436.002 329.227 439.502
C 329.227 441.159 328.909 443.346 329.343 444.923
C 325.521 445.018 321.654 445.067 317.841 445.115
C 318.434 438.685 317.795 431.964 317.772 425.506
C 317.738 415.947 318.092 406.314 317.699 396.766 Z"
opacity="1" fill="rgb(244,97,14)" fill-rule="evenodd" />
<path d="
M 326.48 151.93
C 340.192 153.835 353.923 156.052 367.551 158.545
C 371.383 159.247 375.218 160.001 379.066 160.601
C 380.685 160.853 382.625 160.604 384.059 161.461
C 386.258 163.147 387.906 165.677 389.84 167.656
C 394.832 172.765 399.68 178.064 404.379 183.441
C 413.618 194.014 423.946 203.802 432.929 214.559
C 432.523 214.718 431.944 214.613 431.511 214.615
C 430.488 214.275 430.096 214.195 429.247 213.456
C 427.319 211.642 425.131 211.257 422.717 210.159
C 418.719 208.341 414.699 206.544 410.72 204.689
C 396.871 198.233 383.042 191.757 369.147 185.407
C 360.55 181.478 352.123 177.054 343.479 173.257
C 341.397 172.342 339.428 171.153 337.271 170.411
C 336.666 170.203 335.222 169.727 334.918 170.543
C 332.595 164.304 328.23 158.777 326.191 152.39
C 326.287 152.237 326.384 152.084 326.48 151.93 Z"
opacity="1" fill="rgb(250,130,19)" fill-rule="evenodd" />
<path d="
M 328.897 493.078
C 329.666 489.537 332.852 486.139 336.494 485.562
C 342.679 484.583 349.249 490.076 347.803 496.61
C 345.678 506.213 330.934 506.746 328.882 496.787
C 328.629 495.562 328.633 494.297 328.897 493.078 Z
M 331.904 492.571
C 331.062 495.654 331.938 499.224 334.781 500.973
C 338.508 503.266 343.693 501.009 344.847 496.908
C 347.181 488.613 334.285 483.853 331.904 492.571 Z"
opacity="1" fill="rgb(8,7,64)" fill-rule="evenodd" />
<path d="
M 334.918 170.543
C 335.222 169.727 336.666 170.203 337.271 170.411
C 339.428 171.153 341.397 172.342 343.479 173.257
C 352.123 177.054 360.55 181.478 369.147 185.407
C 383.042 191.757 396.871 198.233 410.72 204.689
C 414.699 206.544 418.719 208.341 422.717 210.159
C 425.131 211.257 427.319 211.642 429.247 213.456
C 430.096 214.195 430.488 214.275 431.511 214.615
C 426.716 214.766 421.928 214.431 417.142 214.401
C 405.43 214.327 393.714 214.396 382.002 214.407
C 373.437 214.416 364.798 214.218 356.253 214.835
C 355.942 214.738 355.771 213.958 355.643 213.699
C 355.201 212.8 354.666 211.758 354.001 211.006
C 352.552 206.89 350.245 202.936 348.395 198.981
C 343.973 189.527 338.807 180.226 334.918 170.543 Z"
opacity="1" fill="rgb(250,143,25)" fill-rule="evenodd" />
<path d="
M 339.363 396.767
C 341.484 396.715 343.731 396.988 345.833 396.753
C 345.298 392.699 345.913 388.379 345.746 384.29
C 349.38 384.433 353.073 384.327 356.712 384.251
C 356.755 388.395 356.752 392.549 356.671 396.694
C 360.732 396.365 365.585 396.309 369.635 396.734
C 369.491 398.786 369.601 400.931 369.635 402.995
C 369.642 403.466 369.924 405.188 369.514 405.442
C 365.289 405.431 361.067 405.38 356.841 405.443
C 356.321 407.959 356.718 410.933 356.727 413.502
C 356.743 418.305 356.704 423.109 356.795 427.912
C 356.845 430.54 356.624 433.781 359.195 435.336
C 362.446 437.302 365.376 435.064 368.549 434.662
C 369.039 436.485 369.203 438.396 369.57 440.248
C 369.724 441.021 370.203 442.102 370.009 442.872
C 367.347 444.15 364.849 445.098 361.89 445.465
C 360.139 445.683 358.348 445.527 356.624 445.171
C 355.268 444.891 353.906 444.513 352.658 443.899
C 346.872 441.052 345.864 435.081 345.854 429.278
C 345.846 424.45 346.073 419.632 346.079 414.808
C 346.081 412.641 346.048 410.472 346.089 408.306
C 346.103 407.526 346.351 406.19 345.948 405.512
C 343.809 405.329 341.44 405.888 339.375 405.586
C 339.621 402.719 339.507 399.64 339.363 396.767 Z"
opacity="1" fill="rgb(245,102,19)" fill-rule="evenodd" />
<path d="
M 352.458 485.939
C 353.159 485.513 354.423 485.185 354.972 485.988
C 355.215 488.983 355.079 491.989 355.122 495
C 355.143 496.451 355.005 498.111 355.619 499.468
C 357.522 503.67 364 501.61 365.763 498.379
C 366.761 494.256 365.752 489.568 366.227 485.354
C 367.029 485.378 367.825 485.343 368.627 485.356
C 369.176 486.971 368.674 489.284 368.673 490.991
C 368.671 495.217 369.163 499.835 368.54 504.013
C 367.984 504.437 366.834 504.225 366.165 504.208
C 365.885 503.625 366.401 502.498 365.904 502.019
C 365.365 501.501 363.113 503.47 362.514 503.763
C 360.527 504.736 357.714 504.633 355.798 503.515
C 350.6 500.484 352.262 491.009 352.458 485.939 Z"
opacity="1" fill="rgb(11,7,69)" fill-rule="evenodd" />
<path d="
M 375.316 485.441
C 376.219 485.465 377.096 485.466 377.998 485.56
C 378.088 486.78 378.046 487.815 377.922 489.038
C 379.851 488.489 381.836 484.406 384.33 485.331
C 384.444 486.146 384.76 487.308 384.489 488.11
C 382.758 489.026 380.971 489.434 379.572 490.917
C 377.247 493.382 377.832 497.829 377.833 500.995
C 377.833 501.954 378.062 503.161 377.716 504.065
C 377.025 504.118 376.403 504.046 375.707 504.04
C 374.932 502.287 375.292 499.882 375.284 497.999
C 375.267 493.964 374.707 489.415 375.316 485.441 Z"
opacity="1" fill="rgb(11,9,73)" fill-rule="evenodd" />
<path d="
M 387.306 500.963
C 387.438 500.727 387.57 500.491 387.702 500.255
C 389.377 499.981 391.298 501.635 393.062 501.895
C 394.936 502.171 400.837 500.881 398.188 497.905
C 395.594 494.991 389.423 496.147 387.926 492.04
C 386.837 489.055 389.046 486.41 391.868 485.653
C 394.699 484.895 397.989 485.746 400.38 487.345
C 400.359 488.2 400.182 488.906 399.431 489.377
C 398.553 489.466 397.677 488.481 396.883 488.117
C 394.6 487.073 389.122 487.958 390.478 491.537
C 393.263 494.367 398.886 493.24 400.888 497.203
C 402.278 499.956 399.998 502.951 397.397 503.778
C 393.943 504.875 390.365 503.729 387.329 502.083
C 387.008 501.457 387.082 501.824 387.306 500.963 Z"
opacity="1" fill="rgb(8,4,58)" fill-rule="evenodd" />
<path d="
M 404.504 494.609
C 404.836 492.357 405.524 490.239 407.02 488.464
C 410.462 484.384 416.783 484.486 420.129 488.629
C 421.797 490.695 422.363 493.234 422.345 495.83
C 419.596 495.756 416.773 495.935 414.009 495.94
C 411.647 495.944 409.279 495.709 406.961 496.251
C 408.546 500.115 411.832 503.007 416.305 501.541
C 417.71 501.08 418.716 499.942 420.143 499.543
C 420.772 500.043 421.186 500.607 421.292 501.42
C 420.83 502.005 419.706 502.395 419.058 502.795
C 412.955 506.562 404.247 501.991 404.504 494.609 Z
M 406.93 493.124
C 406.868 493.301 406.805 493.478 406.742 493.655
C 411.101 493.741 415.468 493.631 419.827 493.696
C 419.98 493.057 418.917 491.121 418.567 490.543
C 415.934 486.189 411.021 487.004 408.274 490.733
C 407.771 491.504 407.456 492.372 406.93 493.124 Z"
opacity="1" fill="rgb(10,8,64)" fill-rule="evenodd" />
<path d="
M 404.801 396.339
C 408.334 396.341 412.525 395.773 415.984 396.417
C 415.797 403.708 416.036 411.029 416.068 418.317
C 416.086 422.479 415.773 427.146 417.927 430.881
C 422.368 438.585 434.212 436.776 437.875 429.388
C 439.766 425.574 439.221 421.152 439.183 417.012
C 439.119 410.173 439.258 403.316 439.019 396.482
C 440.232 396.03 441.654 396.281 442.935 396.295
C 445.487 396.323 448.047 396.229 450.596 396.304
C 450.234 398.522 450.608 401.218 450.611 403.499
C 450.617 408.665 450.64 413.832 450.656 418.999
C 450.674 424.666 450.679 430.334 450.688 436.001
C 450.693 438.869 450.351 442.037 450.804 444.868
C 447.2 444.576 443.026 444.363 439.448 444.896
C 439.381 442.411 439.631 439.92 439.545 437.454
C 437.96 438.344 436.626 440.768 435.141 441.986
C 432.313 444.305 428.541 445.504 424.937 445.825
C 422.661 446.028 420.382 445.843 418.164 445.295
C 416.45 444.871 414.776 444.2 413.249 443.314
C 402.435 437.039 404.573 422.058 404.585 411.491
C 404.588 408.161 404.593 404.829 404.61 401.499
C 404.619 399.855 404.341 397.913 404.801 396.339 Z"
opacity="1" fill="rgb(247,105,23)" fill-rule="evenodd" />
<path d="
M 465.877 397
C 465.948 396.843 466.02 396.686 466.091 396.53
C 469.473 396.585 473.338 396.031 476.653 396.705
C 476.615 399.161 477.311 402.564 476.466 404.888
C 477.108 404.683 477.564 403.561 477.96 403.05
C 478.936 401.791 480.092 400.673 481.378 399.724
C 485.762 396.492 491.633 395.164 497.026 395.884
C 499.374 396.198 501.69 396.996 503.815 398.03
C 521.639 406.699 522.01 435.56 503.468 443.804
C 500.932 444.931 498.262 445.642 495.483 445.828
C 490.429 446.166 485.068 444.475 481.186 441.207
C 479.745 439.995 478.486 437.61 476.956 436.722
C 478.177 442.399 477.348 448.709 477.391 454.498
C 477.402 456.02 476.849 459.816 477.751 461.086
C 476.67 460.661 475.151 460.808 474 460.795
C 471.34 460.764 468.686 460.703 466.029 460.834
C 465.379 460.332 465.78 457.577 465.773 456.703
C 465.74 452.804 465.804 448.903 465.808 445.003
C 465.824 429.026 466.298 412.969 465.877 397 Z
M 477.007 420.624
C 476.934 432.891 490.989 441.2 500.888 432.916
C 502.607 431.477 503.755 429.636 504.69 427.62
C 505.642 425.566 506.126 423.352 506.156 421.088
C 506.19 418.506 505.674 415.842 504.621 413.486
C 501.083 405.568 490.693 402.458 483.504 407.52
C 479.395 410.413 477.037 415.652 477.007 420.624 Z"
opacity="1" fill="rgb(245,105,23)" fill-rule="evenodd" />

</svg>